<?xml version="1.0" standalone="no"?><!DOCTYPE svg PUBLIC "-//W3C//DTD SVG 1.1//EN" "http://www.w3.org/Graphics/SVG/1.1/DTD/svg11.dtd"><svg t="1523425516655" class="icon" style="" viewBox="0 0 1024 1024" version="1.1" xmlns="http://www.w3.org/2000/svg" p-id="2344" xmlns:xlink="http://www.w3.org/1999/xlink" width="200" height="200"><defs><style type="text/css"></style></defs><path d="M819.2 459.776l-215.04-28.4672L512 225.28l-92.16 206.2336L204.8 459.776l158.1056 155.8528-40.96 224.0512L512 729.7024 701.6448 839.68l-40.96-223.8464zM512 677.0688L372.5312 757.76l29.9008-163.84L286.72 479.232l157.696-20.48L512 307.2l67.584 151.3472 157.696 20.48L621.1584 593.92l29.9008 163.84z" p-id="2345"></path><path d="M512 61.44A471.04 471.04 0 0 0 144.7936 827.392L174.08 798.72a430.08 430.08 0 1 1 92.16 87.04l-29.4912 29.4912A471.04 471.04 0 1 0 512 61.44z" p-id="2346"></path><path d="M200.9088 829.0304L171.8272 858.112q15.9744 16.5888 33.3824 31.5392L234.496 860.16a436.0192 436.0192 0 0 1-33.5872-31.1296z" p-id="2347"></path></svg>