<?xml version="1.0" standalone="no"?><!DOCTYPE svg PUBLIC "-//W3C//DTD SVG 1.1//EN" "http://www.w3.org/Graphics/SVG/1.1/DTD/svg11.dtd"><svg t="1523425503241" class="icon" style="" viewBox="0 0 1024 1024" version="1.1" xmlns="http://www.w3.org/2000/svg" p-id="2229" xmlns:xlink="http://www.w3.org/1999/xlink" width="200" height="200"><defs><style type="text/css"></style></defs><path d="M733.3888 208.0768a81.92 81.92 0 0 0-115.9168 0L241.0496 583.2704 184.32 757.76l172.4416-59.1872L733.3888 323.584a81.92 81.92 0 0 0 0-115.5072z m-28.8768 86.6304L327.68 669.9008l-86.8352 28.8768 28.8768-86.6304 376.832-375.1936a40.96 40.96 0 1 1 57.9584 57.7536z" p-id="2230"></path><path d="M588.5952 236.9536l28.8768-28.8768 115.9168 115.5072-28.8768 28.8768zM241.0496 583.2704l28.8768-28.8768 115.9168 115.5072-28.8768 28.8768zM839.68 798.72H245.76v40.96h593.92a20.48 20.48 0 0 0 0-40.96zM204.8 798.72H184.32a20.48 20.48 0 0 0 0 40.96h20.48z" p-id="2231"></path></svg>