<?xml version="1.0" standalone="no"?><!DOCTYPE svg PUBLIC "-//W3C//DTD SVG 1.1//EN" "http://www.w3.org/Graphics/SVG/1.1/DTD/svg11.dtd"><svg t="1523425493315" class="icon" style="" viewBox="0 0 1024 1024" version="1.1" xmlns="http://www.w3.org/2000/svg" p-id="2113" xmlns:xlink="http://www.w3.org/1999/xlink" width="200" height="200"><defs><style type="text/css"></style></defs><path d="M291.84 442.368h-245.76a20.48 20.48 0 1 0 0 40.96h245.76zM680.96 456.704h-163.84v40.96h163.84a20.48 20.48 0 1 0 0-40.96zM404.48 327.68a20.48 20.48 0 0 1 20.48 20.48v245.76a20.48 20.48 0 0 1-40.96 0V348.16a20.48 20.48 0 0 1 20.48-20.48z" p-id="2114"></path><path d="M534.7328 463.4624a20.48 20.48 0 0 1 0 28.8768l-115.9168 115.9168A20.48 20.48 0 0 1 389.12 579.3792l115.9168-115.9168a20.48 20.48 0 0 1 29.696 0zM419.0208 333.6192a20.48 20.48 0 0 1 0 28.8768l-115.9168 115.9168a20.48 20.48 0 0 1-28.8768-28.8768L389.12 333.6192a20.48 20.48 0 0 1 29.9008 0zM239.2064 536.3712l-28.0576 28.0576c9.6256 12.9024 20.48 25.6 30.1056 38.0928l27.8528-27.8528c-10.24-12.6976-20.2752-25.3952-29.9008-38.2976z" p-id="2115"></path><path d="M894.5664 155.4432c-209.5104-110.3872-348.16 96.256-348.16 96.256S409.6 44.8512 200.704 155.4432c-116.1216 61.44-122.88 159.3344-76.8 264.6016l35.2256-35.2256c-20.48-76.3904-2.4576-146.0224 87.6544-193.1264 163.84-86.4256 301.056 115.5072 301.056 115.5072s120.832-208.896 310.4768-109.7728C1170.432 357.376 547.84 839.68 547.84 839.68a1950.3104 1950.3104 0 0 1-251.904-233.6768l-27.8528 27.8528A2303.3856 2303.3856 0 0 0 550.7072 901.12S1257.8816 346.9312 894.5664 155.4432z" p-id="2116"></path></svg>