<?xml version="1.0" standalone="no"?><!DOCTYPE svg PUBLIC "-//W3C//DTD SVG 1.1//EN" "http://www.w3.org/Graphics/SVG/1.1/DTD/svg11.dtd"><svg t="1523425390629" class="icon" style="" viewBox="0 0 1024 1024" version="1.1" xmlns="http://www.w3.org/2000/svg" p-id="1651" xmlns:xlink="http://www.w3.org/1999/xlink" width="200" height="200"><defs><style type="text/css"></style></defs><path d="M421.888 848.2816c-10.8544-2.8672-20.48-6.3488-31.5392-10.24a81.92 81.92 0 0 1-53.8624 20.48h-81.92v-81.92a81.92 81.92 0 0 1 4.5056-26.0096 348.16 348.16 0 0 1-29.2864-35.0208 122.88 122.88 0 0 0-16.384 61.44v122.88h122.88a122.88 122.88 0 0 0 97.8944-48.7424c-4.096-1.2288-8.192-1.8432-12.288-2.8672zM390.5536 528.7936a143.36 143.36 0 0 1-11.4688-38.7072h-40.96a182.8864 182.8864 0 0 0 17.2032 59.392zM662.528 489.8816a143.36 143.36 0 0 1-249.856 73.3184l-36.0448 20.48a184.32 184.32 0 0 0 327.68-94.208z" p-id="1652"></path><path d="M612.7616 136.192a389.12 389.12 0 0 0-398.336 626.2784 122.88 122.88 0 0 1 15.36-45.6704 348.16 348.16 0 1 1 204.8 135.168 122.88 122.88 0 0 1-36.864 32.3584c4.7104 1.4336 9.216 3.2768 13.9264 4.5056a389.12 389.12 0 0 0 201.1136-752.64z" p-id="1653"></path></svg>