<?xml version="1.0" standalone="no"?><!DOCTYPE svg PUBLIC "-//W3C//DTD SVG 1.1//EN" "http://www.w3.org/Graphics/SVG/1.1/DTD/svg11.dtd"><svg t="1523425562590" class="icon" style="" viewBox="0 0 1024 1024" version="1.1" xmlns="http://www.w3.org/2000/svg" p-id="3118" xmlns:xlink="http://www.w3.org/1999/xlink" width="200" height="200"><defs><style type="text/css"></style></defs><path d="M592.9 96c-45 0-84.2 30.7-92.5 74.2 0 0-13.4 68.1-20.4 92.6-11.5 40.4-51.8 85-80.9 99.3-22 10.9-103.7 11-108.8 11H179.2c-30.6 0-55.5 24.8-55.5 55.5v444c0 30.6 24.8 55.5 55.5 55.5h512.3c82.4 0 152.4-60.3 164.6-141.8L899 500.5c10.1-67.1-41.9-127.4-109.8-127.4H662.9s18.7-62.1 28.3-167c4.8-53.1-32.9-103.8-88.1-109.5-3.4-0.4-6.8-0.6-10.2-0.6zM345.6 872.5V426.9c36.4-2.4 62.6-7.5 78.1-15.2 40.9-20.2 93.1-75.8 109.6-133.8 7.4-25.9 20-89.9 21.5-97.4 3.2-16.8 19.2-29.1 38-29.1 1.5 0 3 0.1 4.5 0.2 26.4 2.7 40.5 27.7 38.6 49.3-8.8 97.1-26 155.6-26.2 156l-21.6 71.5H789.2c16.4 0 31.4 6.9 42.1 19.3 10.7 12.4 15.3 28.2 12.8 44.5L801.3 778c-8.2 54.8-54.4 94.5-109.8 94.5H345.6z m-166.4 0v-444h110.9v444H179.2z" p-id="3119"></path></svg>