<?xml version="1.0" standalone="no"?><!DOCTYPE svg PUBLIC "-//W3C//DTD SVG 1.1//EN" "http://www.w3.org/Graphics/SVG/1.1/DTD/svg11.dtd"><svg t="1523425847461" class="icon" style="" viewBox="0 0 1024 1024" version="1.1" xmlns="http://www.w3.org/2000/svg" p-id="802" xmlns:xlink="http://www.w3.org/1999/xlink" width="200" height="200"><defs><style type="text/css"></style></defs><path d="M236.1344 286.72H614.4a20.48 20.48 0 1 0 0-40.96H236.1344a20.48 20.48 0 0 0 0 40.96zM696.32 286.72h195.1744a20.48 20.48 0 1 0 0-40.96H696.32a20.48 20.48 0 1 0 0 40.96z" p-id="803"></path><path d="M143.36 266.24m-20.48 0a20.48 20.48 0 1 0 40.96 0 20.48 20.48 0 1 0-40.96 0Z" p-id="804"></path><path d="M143.36 512m-20.48 0a20.48 20.48 0 1 0 40.96 0 20.48 20.48 0 1 0-40.96 0Z" p-id="805"></path><path d="M143.36 757.76m-20.48 0a20.48 20.48 0 1 0 40.96 0 20.48 20.48 0 1 0-40.96 0Z" p-id="806"></path><path d="M236.1344 532.48H532.48a20.48 20.48 0 1 0 0-40.96H236.1344a20.48 20.48 0 0 0 0 40.96zM614.4 532.48h277.0944a20.48 20.48 0 1 0 0-40.96H614.4a20.48 20.48 0 1 0 0 40.96zM236.1344 778.24H737.28a20.48 20.48 0 1 0 0-40.96H236.1344a20.48 20.48 0 1 0 0 40.96zM819.2 778.24h72.2944a20.48 20.48 0 1 0 0-40.96H819.2a20.48 20.48 0 1 0 0 40.96z" p-id="807"></path></svg>