<?xml version="1.0" standalone="no"?><!DOCTYPE svg PUBLIC "-//W3C//DTD SVG 1.1//EN" "http://www.w3.org/Graphics/SVG/1.1/DTD/svg11.dtd"><svg t="1523426123305" class="icon" style="" viewBox="0 0 1024 1024" version="1.1" xmlns="http://www.w3.org/2000/svg" p-id="1070" xmlns:xlink="http://www.w3.org/1999/xlink" width="200" height="200"><defs><style type="text/css"></style></defs><path d="M838 452.643V515h-34.681v-62.357c0-160.715-130.428-291-291.319-291s-291.319 130.285-291.319 291V515H186v-62.357C186 272.8 331.955 127 512 127s326 145.8 326 325.643z" fill="#FCCAA7" p-id="1071"></path><path d="M125 530h61v250h-61a61 61 0 0 1-61-61V591a61 61 0 0 1 61-61z" fill="#FFEDE1" p-id="1072"></path><path d="M204.99 480a61 61 0 0 1 61 61v228a61 61 0 0 1-122 0V541a61 61 0 0 1 61-61z" fill="#BC4141" p-id="1073"></path><path d="M838 530h61a61 61 0 0 1 61 61v128a61 61 0 0 1-61 61h-61V530z" fill="#FFEDE1" p-id="1074"></path><path d="M758 480l122 0 0 350-122 0 0-350Z" fill="#BC4141" p-id="1075"></path></svg>