<?xml version="1.0" standalone="no"?><!DOCTYPE svg PUBLIC "-//W3C//DTD SVG 1.1//EN" "http://www.w3.org/Graphics/SVG/1.1/DTD/svg11.dtd"><svg t="1523425443921" class="icon" style="" viewBox="0 0 1024 1024" version="1.1" xmlns="http://www.w3.org/2000/svg" p-id="1996" xmlns:xlink="http://www.w3.org/1999/xlink" width="200" height="200"><defs><style type="text/css"></style></defs><path d="M204.8 552.96h204.8a20.48 20.48 0 0 1 0 40.96H204.8a20.48 20.48 0 0 1 0-40.96z" p-id="1997"></path><path d="M143.36 921.6a40.96 40.96 0 0 1-40.96-40.96V143.36a40.96 40.96 0 0 1 40.96-40.96h614.4a40.96 40.96 0 0 1 40.96 40.96v327.68h40.96V143.36a81.92 81.92 0 0 0-81.92-81.92H143.36a81.92 81.92 0 0 0-81.92 81.92v737.28a81.92 81.92 0 0 0 81.92 81.92h327.68v-40.96z" p-id="1998"></path><path d="M737.28 512a225.28 225.28 0 1 0 225.28 225.28 225.28 225.28 0 0 0-225.28-225.28z m0 409.6a184.32 184.32 0 1 1 184.32-184.32 184.32 184.32 0 0 1-184.32 184.32z" p-id="1999"></path><path d="M771.2768 660.6848Q634.88 584.0896 634.88 737.28t136.6016 76.5952q136.192-76.5952-0.2048-153.1904z m-13.5168 122.88Q675.84 829.44 675.84 737.28t81.92-46.08q81.92 46.08 0 92.16zM225.28 307.2h-20.48a20.48 20.48 0 0 0 0 40.96h20.48zM696.32 307.2H266.24v40.96h430.08a20.48 20.48 0 0 0 0-40.96z" p-id="2000"></path></svg>