<?xml version="1.0" standalone="no"?><!DOCTYPE svg PUBLIC "-//W3C//DTD SVG 1.1//EN" "http://www.w3.org/Graphics/SVG/1.1/DTD/svg11.dtd"><svg t="1523425873006" class="icon" style="" viewBox="0 0 1024 1024" version="1.1" xmlns="http://www.w3.org/2000/svg" p-id="1661" xmlns:xlink="http://www.w3.org/1999/xlink" width="200" height="200"><defs><style type="text/css"></style></defs><path d="M598.9632 795.5456c-33.6896 39.2704-58.9312 65.4592-62.7712 70.0672-13.0048 13.0816-30.6176 20.7872-48.2304 20.7872a68.4032 68.4032 0 0 1-47.4624-20.0192 1501.5424 1501.5424 0 0 1-62.7712-70.0672c-74.24 16.1792-124.7744 50.816-124.7744 88.5504 0 55.4496 105.6256 100.096 235.776 100.096s235.776-45.44 235.776-100.096c-1.536-38.5024-52.0704-72.3968-125.5424-89.3184z m-111.7696 68.5312a25.344 25.344 0 0 0 19.1488-7.7056C518.5792 843.2896 806.4 540.672 806.4 369.7408 806.4 193.408 662.5024 48.64 487.1936 48.64S167.9872 191.8464 167.9872 369.7408c0 170.9312 287.8208 474.3168 300.0576 486.6304 5.376 5.376 11.4944 7.7056 19.1488 7.7056z m-129.3568-494.336c0-72.3712 58.1632-130.1248 129.3568-130.1248s129.3568 58.5216 129.3568 130.1248c0 72.3712-57.4208 130.1248-129.3568 130.1248s-129.3568-58.5216-129.3568-130.1248z" fill="" p-id="1662"></path></svg>