<?xml version="1.0" standalone="no"?><!DOCTYPE svg PUBLIC "-//W3C//DTD SVG 1.1//EN" "http://www.w3.org/Graphics/SVG/1.1/DTD/svg11.dtd"><svg t="1523425932434" class="icon" style="" viewBox="0 0 1024 1024" version="1.1" xmlns="http://www.w3.org/2000/svg" p-id="2929" xmlns:xlink="http://www.w3.org/1999/xlink" width="200" height="200"><defs><style type="text/css"></style></defs><path d="M721 531.1h156.9v372.3H721z" fill="#CCE5F6" p-id="2930"></path><path d="M877.9 506.4h-157c-13.7 0-24.7 11.1-24.7 24.7v372.3c0 13.7 11.1 24.7 24.7 24.7h156.9c13.7 0 24.7-11.1 24.7-24.7V531.1c0.1-13.6-11-24.7-24.6-24.7z m-24.8 372.3H745.7V555.9h107.4v322.8z" fill="#2197EF" p-id="2931"></path><path d="M112 336.7h156.9v566.7H112z" fill="#CCE5F6" p-id="2932"></path><path d="M268.9 312H112c-13.7 0-24.7 11.1-24.7 24.7v566.7c0 13.7 11.1 24.7 24.7 24.7h156.9c13.7 0 24.7-11.1 24.7-24.7V336.7c0-13.6-11-24.7-24.7-24.7z m-24.7 566.7H136.7V361.5h107.4v517.2z" fill="#2197EF" p-id="2933"></path><path d="M548.3 435.8v442.9H440.8V147.6h107.4v127.8h49.5V122.9c0-13.7-11.1-24.7-24.7-24.7H416.1c-13.7 0-24.7 11.1-24.7 24.7v780.6c0 13.7 11.1 24.7 24.7 24.7H573c13.7 0 24.7-11.1 24.7-24.7V435.8h-49.4z" fill="#2197EF" p-id="2934"></path><path d="M548.2 275.3a24.8 24.6 0 1 0 49.6 0 24.8 24.6 0 1 0-49.6 0Z" fill="#2197EF" p-id="2935"></path><path d="M548.2 435.7a24.8 24.6 0 1 0 49.6 0 24.8 24.6 0 1 0-49.6 0Z" fill="#2197EF" p-id="2936"></path></svg>