<?xml version="1.0" standalone="no"?><!DOCTYPE svg PUBLIC "-//W3C//DTD SVG 1.1//EN" "http://www.w3.org/Graphics/SVG/1.1/DTD/svg11.dtd"><svg t="1524030230010" class="icon" style="" viewBox="0 0 1024 1024" version="1.1" xmlns="http://www.w3.org/2000/svg" p-id="7060" xmlns:xlink="http://www.w3.org/1999/xlink" width="32" height="32"><defs><style type="text/css"></style></defs><path d="M419.383626 321.029574c0-0.147356 0.024559-0.286526 0.024559-0.429789 0-0.148379-0.024559-0.291642-0.024559-0.434905-73.558319-4.300956-132.321678-63.063291-136.620587-136.621611-0.148379 0-0.287549-0.023536-0.434905-0.023536-0.148379 0-0.286526 0.023536-0.434905 0.023536-4.300956 73.558319-63.063291 132.321678-136.620587 136.621611 0 0.143263-0.020466 0.286526-0.020466 0.434905 0 0.143263 0.020466 0.282433 0.020466 0.429789 73.557296 4.300956 132.320655 63.060221 136.620587 136.618541 0.148379 0.004093 0.286526 0.024559 0.434905 0.024559 0.147356 0 0.286526-0.020466 0.434905-0.024559C287.062971 384.089795 345.825306 325.33053 419.383626 321.029574L419.383626 321.029574zM510.790452 640.445394c58.882062 0 106.616226-47.735188 106.616226-106.61725s-47.734164-106.612133-106.616226-106.612133c-58.882062 0-106.616226 47.730071-106.616226 106.612133S451.90839 640.445394 510.790452 640.445394L510.790452 640.445394zM739.253794 305.370943c-33.648354 0-60.923558 27.27418-60.923558 60.922535 0 33.644261 27.27418 60.923558 60.923558 60.923558 33.643238 0 60.923558-27.275203 60.923558-60.923558C800.177352 332.645123 772.897032 305.370943 739.253794 305.370943L739.253794 305.370943zM692.216501 675.444513c-14.82259-8.748245-33.066093-1.928932-40.818661 15.083533-1.438769 3.172249-36.509519 77.579913-140.40068 77.734432-103.881952-0.155543-138.945539-74.713632-140.244114-77.56354-7.477298-17.350157-25.720801-24.429389-40.74703-15.788591-15.022135 8.621355-21.147646 29.67895-13.678534 47.029106 2.048659 4.755304 51.668777 116.161626 194.352453 116.493178l0.63752 0c142.671397-0.331551 192.287421-111.551632 194.33608-116.290563C713.082738 704.932104 707.048301 684.196851 692.216501 675.444513L692.216501 675.444513zM874.15625 273.144984c-1.418302-3.028986-35.80753-74.176396-134.680399-74.384128l-0.446162 0c-98.884125 0.206708-133.270283 71.477938-134.688585 74.515111-5.176906 11.100826-0.932232 24.568559 9.477862 30.084179 10.41521 5.5279 23.057135 0.9967 28.239158-10.100032 0.900509-1.822508 25.201985-49.520857 97.193623-49.615001 71.998801 0.095167 96.30437 47.698349 97.30107 49.722448 5.373381 10.884908 18.015306 15.246239 28.290323 9.645684C875.121228 297.422923 879.302457 284.157805 874.15625 273.144984L874.15625 273.144984zM874.15625 273.144984" p-id="7061" fill="#bfbfbf"></path></svg>