<?xml version="1.0" standalone="no"?><!DOCTYPE svg PUBLIC "-//W3C//DTD SVG 1.1//EN" "http://www.w3.org/Graphics/SVG/1.1/DTD/svg11.dtd"><svg t="1524030154582" class="icon" style="" viewBox="0 0 1024 1024" version="1.1" xmlns="http://www.w3.org/2000/svg" p-id="5931" xmlns:xlink="http://www.w3.org/1999/xlink" width="32" height="32"><defs><style type="text/css"></style></defs><path d="M534.900364 516.142545c26.437818 4.794182 41.472 26.391273 50.222545 31.325091 26.437818 14.941091-107.985455 46.312727 24.296727 142.848-3.351273 48.034909-1.396364 92.811636-6.469818 100.910545-11.636364 18.478545-5.445818 30.347636 0 36.212364-31.557818 8.098909 6.330182 75.264 31.557818 59.950545 15.499636-9.448727 0-29.044364 13.498182-47.662545-13.498182-32.581818 98.816-121.762909 119.528727-137.262545 0 0-0.698182-39.191273 30.626909-63.860364 15.546182-12.241455-23.458909-37.050182-50.082909-28.485818 0 0-1.582545-50.408727-74.612364-44.125091-27.973818 2.420364-46.592-15.127273-46.592-15.127273s-23.877818-45.381818-50.036364-45.381818c-4.235636 0 3.258182-16.802909-13.032727-25.320727-12.8-6.702545-48.360727-7.121455-48.360727-20.619636s34.490182-8.098909 55.947636-25.181091c6.469818-5.12 15.965091 20.061091 22.714182 14.382545 7.68-6.469818-8.424727-18.338909 15.406545-38.632727 4.328727-3.677091 27.741091-28.858182 47.616-45.195636 7.168-5.911273 21.271273-1.349818 23.458909-7.307636 8.285091-22.481455-30.161455-3.584-17.221818-32.116364 4.654545-10.24 75.822545 17.966545 79.918545 13.870545 9.867636-9.914182-52.689455-13.265455-26.763636-28.718545 10.984727-6.562909-74.752-74.565818-99.793455-67.677091-25.088 6.888727 3.770182 73.216-22.667636 67.677091-26.205091-5.492364-57.623273-31.278545-74.752-46.033455-20.154182-17.408 34.257455-16.011636 44.404364-30.301091 12.148364-17.175273 1.582545-33.559273-8.378182-36.770909-37.981091-12.148364-90.624 16.290909-115.525818 10.053818C395.776 196.561455 416.116364 185.809455 368.733091 179.2 345.088 175.895273 319.301818 192.977455 280.064 185.250909 232.215273 175.802182 232.634182 265.588364 214.760727 286.580364c44.823273-39.098182 135.400727-10.519273 126.510545 24.110545C329.681455 355.979636 412.439273 427.008 425.611636 459.543273c6.888727 17.035636 35.328-18.432 58.414545 45.940364C488.215273 525.544727 513.303273 512.232727 534.900364 516.142545z" p-id="5932" fill="#bfbfbf"></path><path d="M1024 512c0-282.763636-229.236364-512-512-512C229.236364 0 0 229.236364 0 512c0 282.763636 229.236364 512 512 512C794.763636 1024 1024 794.763636 1024 512zM46.545455 512C46.545455 254.929455 254.929455 46.545455 512 46.545455c257.070545 0 465.454545 208.384 465.454545 465.454545s-208.384 465.454545-465.454545 465.454545C254.929455 977.454545 46.545455 769.070545 46.545455 512z" p-id="5933" fill="#bfbfbf"></path></svg>