<?xml version="1.0" standalone="no"?><!DOCTYPE svg PUBLIC "-//W3C//DTD SVG 1.1//EN" "http://www.w3.org/Graphics/SVG/1.1/DTD/svg11.dtd"><svg t="1524033068280" class="icon" style="" viewBox="0 0 1024 1024" version="1.1" xmlns="http://www.w3.org/2000/svg" p-id="7530" xmlns:xlink="http://www.w3.org/1999/xlink" width="16" height="16"><defs><style type="text/css"></style></defs><path d="M206.9 348.7c53.2-60.2 95.8-127.2 90.6-200.9-0.5-7.5-0.4-15-0.9-22.4-0.3-3.6 2.4-6.7 6.1-7 2.2-0.1 4.3-0.3 6.4-0.3 160.2 0 290.1 124 290.1 276.9 0 11.5-0.8 22.7-2.3 33.8-0.8 6.1 6.4 9.7 10.8 5.4 46.2-44.6 76.7-103.9 82.8-170.2 0.4-4.6 5.5-7.3 9.7-4.9 106.4 62.5 177.5 174.3 177.5 302.3 0 146.3-92.9 271.9-225.5 326-24 9.8-50.7 11.2-75.7 4-57.3-16.4-111.5-46.7-156.9-90.8-17-16.6-31.8-34.5-44.9-53.2-3-4.4-9.7-3.4-11.3 1.5-13.5 39.1-19.9 79.9-19.3 120.8 0.1 4.8-4.9 8-9.3 5.9-118.5-59.3-199.7-177.5-199.7-314.2 0-76.2 24.1-149.5 67-207.3" fill="#F02D63" p-id="7531"></path></svg>