<?xml version="1.0" standalone="no"?><!DOCTYPE svg PUBLIC "-//W3C//DTD SVG 1.1//EN" "http://www.w3.org/Graphics/SVG/1.1/DTD/svg11.dtd"><svg t="1524030336609" class="icon" style="" viewBox="0 0 1024 1024" version="1.1" xmlns="http://www.w3.org/2000/svg" p-id="12018" xmlns:xlink="http://www.w3.org/1999/xlink" width="32" height="32"><defs><style type="text/css"></style></defs><path d="M405.32992 146.479104c0 8.57088-6.936576 15.510528-15.510528 15.510528-8.563712 0-15.50336-6.939648-15.50336-15.510528 0-8.559616 6.939648-15.50336 15.50336-15.50336C398.393344 130.975744 405.32992 137.919488 405.32992 146.479104z" p-id="12019" fill="#bfbfbf"></path><path d="M456.895488 146.479104c0 8.57088-6.950912 15.510528-15.505408 15.510528-8.571904 0-15.509504-6.939648-15.509504-15.510528 0-8.559616 6.9376-15.50336 15.509504-15.50336C449.944576 130.975744 456.895488 137.919488 456.895488 146.479104z" p-id="12020" fill="#bfbfbf"></path><path d="M514.661376 146.479104c0 8.57088-6.936576 15.510528-15.505408 15.510528-8.566784 0-15.507456-6.939648-15.507456-15.510528 0-8.559616 6.939648-15.50336 15.507456-15.50336C507.7248 130.975744 514.661376 137.919488 514.661376 146.479104z" p-id="12021" fill="#bfbfbf"></path><path d="M565.835776 146.479104c0 8.57088-6.9376 15.510528-15.504384 15.510528-8.56064 0-15.50848-6.939648-15.50848-15.510528 0-8.559616 6.946816-15.50336 15.50848-15.50336C558.897152 130.975744 565.835776 137.919488 565.835776 146.479104z" p-id="12022" fill="#bfbfbf"></path><path d="M617.792512 146.479104c0 8.57088-6.936576 15.510528-15.505408 15.510528-8.57088 0-15.510528-6.939648-15.510528-15.510528 0-8.559616 6.939648-15.50336 15.510528-15.50336C610.855936 130.975744 617.792512 137.919488 617.792512 146.479104z" p-id="12023" fill="#bfbfbf"></path><path d="M385.118208 161.328128l9.418752 0 0 624.099328-9.418752 0 0-624.099328Z" p-id="12024" fill="#bfbfbf"></path><path d="M436.683776 161.328128l9.414656 0 0 624.099328-9.414656 0 0-624.099328Z" p-id="12025" fill="#bfbfbf"></path><path d="M494.455808 161.328128l9.414656 0 0 624.099328-9.414656 0 0-624.099328Z" p-id="12026" fill="#bfbfbf"></path><path d="M545.629184 161.328128l9.413632 0 0 624.099328-9.413632 0 0-624.099328Z" p-id="12027" fill="#bfbfbf"></path><path d="M597.5808 161.328128l9.417728 0 0 624.099328-9.417728 0 0-624.099328Z" p-id="12028" fill="#bfbfbf"></path><path d="M766.906368 476.294144c-86.728704-127.63136-54.58432-229.892096-54.58432-229.892096l0.646144-2.060288c8.3712 4.694016 17.883136 7.595008 28.155904 7.595008 31.982592 0 57.90208-25.916416 57.90208-57.895936 0-31.970304-25.919488-57.895936-57.90208-57.895936-25.109504 0-46.32576 16.018432-54.294528 38.372352L311.71584 174.517248c-8.019968-22.35392-29.336576-38.372352-54.457344-38.372352-31.973376 0-57.885696 25.925632-57.885696 57.895936 0 31.97952 25.913344 57.895936 57.885696 57.895936 8.82176 0 17.08544-2.118656 24.56064-5.643264l0.03584 0.10752c0 0 32.142336 102.260736-54.58432 229.892096-143.717376 222.287872-31.015936 355.663872 55.831552 392.13056 69.671936 29.25568 184.235008 0 184.235008 0l0.012288 0.006144c7.488512 10.937344 17.313792 17.9712 28.192768 19.10784l0 0.241664 0.347136-0.211968c0.913408 0.08192 1.826816 0.211968 2.743296 0.211968 11.894784 0 22.71232-7.133184 30.848-18.724864 16.743424 3.970048 117.839872 26.131456 181.600256-0.630784C797.924352 831.958016 910.62784 698.582016 766.906368 476.294144zM535.597056 774.365184c-8.334336-17.763328-21.758976-29.348864-36.965376-29.348864-15.208448 0-28.638208 11.604992-36.974592 29.3888-191.57504 0-248.864768-85.13024-162.021376-273.299456 86.847488-188.163072 26.888192-285.543424 26.888192-285.543424l341.123072 0c0 0-59.956224 97.380352 26.882048 285.543424C780.908544 688.247808 724.671488 773.433344 535.597056 774.365184z" p-id="12029" fill="#bfbfbf"></path></svg>