<?xml version="1.0" standalone="no"?><!DOCTYPE svg PUBLIC "-//W3C//DTD SVG 1.1//EN" "http://www.w3.org/Graphics/SVG/1.1/DTD/svg11.dtd"><svg t="1524030248289" class="icon" style="" viewBox="0 0 1025 1024" version="1.1" xmlns="http://www.w3.org/2000/svg" p-id="7915" xmlns:xlink="http://www.w3.org/1999/xlink" width="32.03125" height="32"><defs><style type="text/css"></style></defs><path d="M419.182 146.263h-254.38c-12.108 0-21.924 9.815-21.924 21.923v254.382c0 36.577 29.759 66.333 66.335 66.333h254.38c12.108 0 21.923-9.815 21.923-21.923V212.596c0-36.576-29.757-66.333-66.334-66.333z m22.488 298.793H209.213c-12.4 0-22.488-10.088-22.488-22.487V190.11h232.46c12.397 0 22.486 10.088 22.486 22.487v232.46zM855.797 224.928c-12.108 0-21.922 9.815-21.922 21.923v175.717c0 12.4-10.09 22.487-22.49 22.487H578.928V212.597c0-12.399 10.087-22.487 22.488-22.487h174.346c12.108 0 21.922-9.815 21.922-21.923 0-12.108-9.815-21.923-21.922-21.923H601.415c-36.577 0-66.333 29.757-66.333 66.334V466.98c0 12.108 9.815 21.923 21.922 21.923h254.38c36.579 0 66.335-29.757 66.335-66.333V246.852c0-12.11-9.814-21.924-21.922-21.924zM811.033 538.503H556.651c-12.108 0-21.922 9.815-21.922 21.923v254.382c0 36.576 29.757 66.333 66.335 66.333h254.38c12.108 0 21.923-9.815 21.923-21.923V604.836c0-36.576-29.757-66.333-66.334-66.333z m22.487 298.791H601.064c-12.4 0-22.49-10.088-22.49-22.486V582.349h232.46c12.398 0 22.485 10.088 22.485 22.487v232.458zM463.593 538.503h-254.38c-36.577 0-66.335 29.757-66.335 66.334v254.381c0 12.109 9.817 21.923 21.924 21.923h254.382c36.575 0 66.332-29.757 66.332-66.333V560.426c0-12.108-9.815-21.923-21.923-21.923zM441.67 814.808c0 12.4-10.089 22.486-22.486 22.486h-232.46V604.836c0-12.399 10.089-22.487 22.488-22.487H441.67v232.459zM855.797 193.513c13.965 0 25.326-11.361 25.326-25.327 0-13.965-11.361-25.327-25.326-25.327s-25.328 11.362-25.328 25.327c0 13.965 11.363 25.327 25.328 25.327z" p-id="7916" fill="#bfbfbf"></path></svg>